<svg width="18" height="18" viewBox="0 0 18 18" fill="none" xmlns="http://www.w3.org/2000/svg">
<path d="M8.99941 2C8.52531 2 8.14228 2.39102 8.14228 2.875V3.4C6.18695 3.80469 4.71375 5.57109 4.71375 7.6875V8.20156C4.71375 9.48672 4.25036 10.7281 3.41466 11.6906L3.21645 11.9176C2.99145 12.1746 2.93788 12.5438 3.07449 12.8582C3.21109 13.1727 3.51912 13.375 3.85662 13.375H14.1422C14.4797 13.375 14.785 13.1727 14.9243 12.8582C15.0636 12.5438 15.0074 12.1746 14.7824 11.9176L14.5842 11.6906C13.7485 10.7281 13.2851 9.48945 13.2851 8.20156V7.6875C13.2851 5.57109 11.8119 3.80469 9.85654 3.4V2.875C9.85654 2.39102 9.47351 2 8.99941 2ZM10.2128 15.4887C10.5342 15.1605 10.7137 14.7148 10.7137 14.25H8.99941H7.28515C7.28515 14.7148 7.46461 15.1605 7.78603 15.4887C8.10746 15.8168 8.54406 16 8.99941 16C9.45476 16 9.89136 15.8168 10.2128 15.4887Z" fill="#D9D9D9"/>
</svg>
