<svg width="18" height="18" viewBox="0 0 18 18" fill="none" xmlns="http://www.w3.org/2000/svg">
<path d="M9.66293 1.77413L9.66364 1.77564L11.6119 5.91001L11.7255 6.1511L11.989 6.19119L16.3419 6.8535C16.342 6.85352 16.3422 6.85355 16.3424 6.85358C16.5109 6.87985 16.6611 7.0037 16.7208 7.19005C16.7799 7.37431 16.7302 7.57725 16.6007 7.70923L16.6005 7.70942L13.4433 10.9313L13.2659 11.1123L13.307 11.3623L14.0552 15.9141C14.0552 15.9143 14.0553 15.9145 14.0553 15.9147C14.0864 16.1084 14.0072 16.3006 13.8579 16.4125C13.7176 16.5178 13.532 16.5314 13.3737 16.4457C13.3734 16.4455 13.3731 16.4454 13.3728 16.4452L9.48752 14.3058L9.24634 14.173L9.00516 14.3058L5.11983 16.4452C5.11954 16.4454 5.11924 16.4455 5.11895 16.4457C4.96343 16.5299 4.7761 16.517 4.63208 16.4105C4.48712 16.3033 4.40594 16.1104 4.4374 15.9146C4.43742 15.9145 4.43745 15.9143 4.43747 15.9141L5.18268 11.362L5.22359 11.1121L5.04637 10.9313L1.88913 7.70942L1.88894 7.70923C1.76166 7.57949 1.71084 7.37592 1.76996 7.1864C1.82633 7.00568 1.97621 6.8802 2.14738 6.85356C2.14752 6.85354 2.14765 6.85352 2.14779 6.8535L6.49766 6.19118L6.7611 6.15107L6.87469 5.91001L8.82214 1.77739C8.82226 1.77715 8.82237 1.77691 8.82249 1.77666C8.90688 1.60004 9.0719 1.5 9.24331 1.5C9.41733 1.5 9.58263 1.60222 9.66293 1.77413Z" fill="#D9D9D9" stroke="#E1CF2F"/>
</svg>
