<svg width="18" height="18" viewBox="0 0 18 18" fill="none" xmlns="http://www.w3.org/2000/svg">
<path d="M2.25253 12.3344L2.48378 12.075C3.45878 10.975 3.9994 9.55625 3.9994 8.0875V7.5C3.9994 5.08125 5.71815 3.0625 7.9994 2.6V2C7.9994 1.44687 8.44628 1 8.9994 1C9.55253 1 9.9994 1.44687 9.9994 2L2.25253 12.3344ZM2.25253 12.3344C1.99003 12.6281 1.92753 13.05 2.0869 13.4094M2.25253 12.3344L2.0869 13.4094M2.0869 13.4094C2.24628 13.7688 2.60565 14 2.9994 14M2.0869 13.4094L2.9994 14M2.9994 14H14.9994M2.9994 14H14.9994M14.9994 14C15.3932 14 15.7494 13.7688 15.9119 13.4094M14.9994 14L15.9119 13.4094M15.9119 13.4094C16.0744 13.05 16.0088 12.6281 15.7463 12.3344L15.9119 13.4094ZM8.09875 3.09003L8.4994 3.0088V2.6V2C8.4994 1.72302 8.72242 1.5 8.9994 1.5C9.27638 1.5 9.4994 1.72302 9.4994 2V2.6V3.0088L9.90005 3.09003C11.9527 3.50619 13.4994 5.32368 13.4994 7.5V8.0875C13.4994 9.68232 14.0853 11.2157 15.1409 12.4067L15.1418 12.4077L15.3731 12.6671L15.3734 12.6675C15.5046 12.8143 15.537 13.025 15.4563 13.2034C15.3742 13.385 15.1953 13.5 14.9994 13.5H2.9994C2.801 13.5 2.62222 13.3831 2.54397 13.2067C2.46275 13.0235 2.49628 12.812 2.62536 12.6675L2.62574 12.6671L2.85699 12.4077L2.85795 12.4067C3.91362 11.2156 4.4994 9.67906 4.4994 8.0875V7.5C4.4994 5.32368 6.04608 3.50619 8.09875 3.09003ZM10.4145 15.5C10.3409 15.71 10.2211 15.9024 10.0615 16.0621C9.78106 16.3425 9.3992 16.5 8.9994 16.5C8.5996 16.5 8.21775 16.3425 7.93733 16.0621C7.77771 15.9024 7.65791 15.71 7.58432 15.5H8.9994H10.4145Z" fill="#D9D9D9" stroke="#E1CF2F"/>
</svg>
