<svg width="18" height="18" viewBox="0 0 18 18" fill="none" xmlns="http://www.w3.org/2000/svg">
<path d="M9.65284 3.42183C9.5324 3.16404 9.27788 3 8.99837 3C8.71885 3 8.46661 3.16404 8.34389 3.42183L6.88269 6.52226L3.6194 7.01908C3.3467 7.06126 3.11945 7.25812 3.03537 7.52762C2.95129 7.79712 3.01946 8.09474 3.2149 8.29394L5.58282 10.7101L5.02379 14.1245C4.97834 14.4058 5.09197 14.6917 5.31694 14.858C5.54192 15.0244 5.83962 15.0455 6.08504 14.9119L9.00064 13.3067L11.9162 14.9119C12.1617 15.0455 12.4594 15.0268 12.6843 14.858C12.9093 14.6893 13.0229 14.4058 12.9775 14.1245L12.4162 10.7101L14.7841 8.29394C14.9795 8.09474 15.05 7.79712 14.9636 7.52762C14.8773 7.25812 14.6523 7.06126 14.3796 7.01908L11.1141 6.52226L9.65284 3.42183Z" fill="#D9D9D9"/>
</svg>
